<mxfile host="app.diagrams.net" agent="Mozilla/5.0 (Windows NT 10.0; Win64; x64) AppleWebKit/537.36 (KHTML, like Gecko) Chrome/128.0.0.0 Safari/537.36" version="24.7.8">
  <diagram name="Page-1" id="GwTDUpay3KYhhRESg7AC">
    <mxGraphModel grid="1" page="1" gridSize="10" guides="1" tooltips="1" connect="1" arrows="1" fold="1" pageScale="1" pageWidth="850" pageHeight="1100" math="0" shadow="0">
      <root>
        <mxCell id="0" />
        <mxCell id="1" parent="0" />
        <mxCell id="qJj_PIesuQT_neQn-OG3-124" style="edgeStyle=orthogonalEdgeStyle;rounded=0;orthogonalLoop=1;jettySize=auto;html=1;entryX=0;entryY=0.5;entryDx=0;entryDy=0;endArrow=none;endFill=0;" edge="1" parent="1" source="qJj_PIesuQT_neQn-OG3-27" target="qJj_PIesuQT_neQn-OG3-122">
          <mxGeometry relative="1" as="geometry" />
        </mxCell>
        <mxCell id="qJj_PIesuQT_neQn-OG3-27" value="Hospital" style="swimlane;childLayout=stackLayout;horizontal=1;startSize=50;horizontalStack=0;rounded=1;fontSize=14;fontStyle=1;strokeWidth=2;resizeParent=0;resizeLast=1;shadow=0;dashed=0;align=center;arcSize=4;whiteSpace=wrap;html=1;" vertex="1" parent="1">
          <mxGeometry x="100" y="620" width="160" height="120" as="geometry">
            <mxRectangle x="190" y="400" width="90" height="50" as="alternateBounds" />
          </mxGeometry>
        </mxCell>
        <mxCell id="qJj_PIesuQT_neQn-OG3-28" value="+Hospital_ID,&amp;nbsp;&lt;div&gt;+Name&lt;/div&gt;&lt;div&gt;+Address&lt;br&gt;+Contact_Number&lt;br&gt;&lt;/div&gt;" style="align=left;strokeColor=none;fillColor=none;spacingLeft=4;fontSize=12;verticalAlign=top;resizable=0;rotatable=0;part=1;html=1;fontStyle=0" vertex="1" parent="qJj_PIesuQT_neQn-OG3-27">
          <mxGeometry y="50" width="160" height="70" as="geometry" />
        </mxCell>
        <mxCell id="qJj_PIesuQT_neQn-OG3-29" value="Department" style="swimlane;childLayout=stackLayout;horizontal=1;startSize=50;horizontalStack=0;rounded=1;fontSize=14;fontStyle=1;strokeWidth=2;resizeParent=0;resizeLast=1;shadow=0;dashed=0;align=center;arcSize=4;whiteSpace=wrap;html=1;" vertex="1" parent="1">
          <mxGeometry x="540" y="620" width="160" height="110" as="geometry">
            <mxRectangle x="190" y="400" width="90" height="50" as="alternateBounds" />
          </mxGeometry>
        </mxCell>
        <mxCell id="qJj_PIesuQT_neQn-OG3-30" value="+Department_ID&lt;br&gt;+Name&lt;br&gt;+Location" style="align=left;strokeColor=none;fillColor=none;spacingLeft=4;fontSize=12;verticalAlign=top;resizable=0;rotatable=0;part=1;html=1;fontStyle=0" vertex="1" parent="qJj_PIesuQT_neQn-OG3-29">
          <mxGeometry y="50" width="160" height="60" as="geometry" />
        </mxCell>
        <mxCell id="qJj_PIesuQT_neQn-OG3-31" value="Room" style="swimlane;childLayout=stackLayout;horizontal=1;startSize=50;horizontalStack=0;rounded=1;fontSize=14;fontStyle=1;strokeWidth=2;resizeParent=0;resizeLast=1;shadow=0;dashed=0;align=center;arcSize=4;whiteSpace=wrap;html=1;" vertex="1" parent="1">
          <mxGeometry x="700" y="980" width="180" height="110" as="geometry">
            <mxRectangle x="190" y="400" width="90" height="50" as="alternateBounds" />
          </mxGeometry>
        </mxCell>
        <mxCell id="qJj_PIesuQT_neQn-OG3-32" value="+Room_ID&lt;div&gt;+Room_Type (Private/General)&lt;br&gt;+Charges, Status&lt;/div&gt;" style="align=left;strokeColor=none;fillColor=none;spacingLeft=4;fontSize=12;verticalAlign=top;resizable=0;rotatable=0;part=1;html=1;fontStyle=0" vertex="1" parent="qJj_PIesuQT_neQn-OG3-31">
          <mxGeometry y="50" width="180" height="60" as="geometry" />
        </mxCell>
        <mxCell id="qJj_PIesuQT_neQn-OG3-33" value="Doctor" style="swimlane;childLayout=stackLayout;horizontal=1;startSize=50;horizontalStack=0;rounded=1;fontSize=14;fontStyle=1;strokeWidth=2;resizeParent=0;resizeLast=1;shadow=0;dashed=0;align=center;arcSize=4;whiteSpace=wrap;html=1;" vertex="1" parent="1">
          <mxGeometry x="420" y="980" width="180" height="137" as="geometry">
            <mxRectangle x="190" y="400" width="90" height="50" as="alternateBounds" />
          </mxGeometry>
        </mxCell>
        <mxCell id="qJj_PIesuQT_neQn-OG3-34" value="+Doctor_ID&lt;div&gt;+Name&lt;/div&gt;&lt;div&gt;+Specialty&lt;/div&gt;&lt;div&gt;+Type (Regular/On-Call)&lt;/div&gt;&lt;div&gt;&lt;span style=&quot;background-color: initial;&quot;&gt;+Contact_Number&lt;/span&gt;&lt;/div&gt;" style="align=left;strokeColor=none;fillColor=none;spacingLeft=4;fontSize=12;verticalAlign=top;resizable=0;rotatable=0;part=1;html=1;fontStyle=0" vertex="1" parent="qJj_PIesuQT_neQn-OG3-33">
          <mxGeometry y="50" width="180" height="87" as="geometry" />
        </mxCell>
        <mxCell id="qJj_PIesuQT_neQn-OG3-35" value="Patient" style="swimlane;childLayout=stackLayout;horizontal=1;startSize=50;horizontalStack=0;rounded=1;fontSize=14;fontStyle=1;strokeWidth=2;resizeParent=0;resizeLast=1;shadow=0;dashed=0;align=center;arcSize=4;whiteSpace=wrap;html=1;" vertex="1" parent="1">
          <mxGeometry x="80" y="980" width="180" height="160" as="geometry">
            <mxRectangle x="190" y="400" width="90" height="50" as="alternateBounds" />
          </mxGeometry>
        </mxCell>
        <mxCell id="qJj_PIesuQT_neQn-OG3-36" value="+Patient_ID&lt;div&gt;+Name&lt;br&gt;+Address&lt;/div&gt;&lt;div&gt;+Contact_Number&lt;/div&gt;&lt;div&gt;+Date_of_Birth&lt;/div&gt;&lt;div&gt;+Gender&lt;/div&gt;&lt;div&gt;+Entry_Card_Number&lt;/div&gt;" style="align=left;strokeColor=none;fillColor=none;spacingLeft=4;fontSize=12;verticalAlign=top;resizable=0;rotatable=0;part=1;html=1;fontStyle=0" vertex="1" parent="qJj_PIesuQT_neQn-OG3-35">
          <mxGeometry y="50" width="180" height="110" as="geometry" />
        </mxCell>
        <mxCell id="qJj_PIesuQT_neQn-OG3-37" value="Admission" style="swimlane;childLayout=stackLayout;horizontal=1;startSize=50;horizontalStack=0;rounded=1;fontSize=14;fontStyle=1;strokeWidth=2;resizeParent=0;resizeLast=1;shadow=0;dashed=0;align=center;arcSize=4;whiteSpace=wrap;html=1;" vertex="1" parent="1">
          <mxGeometry x="390" y="1360" width="180" height="150" as="geometry">
            <mxRectangle x="190" y="400" width="90" height="50" as="alternateBounds" />
          </mxGeometry>
        </mxCell>
        <mxCell id="qJj_PIesuQT_neQn-OG3-38" value="+Admission_ID&lt;div&gt;+Date&lt;/div&gt;&lt;div&gt;+Room_Type&lt;/div&gt;&lt;div&gt;+Room_ID&lt;/div&gt;&lt;div&gt;+Patient_ID&lt;/div&gt;&lt;div&gt;+Doctor_ID&lt;br&gt;&lt;/div&gt;" style="align=left;strokeColor=none;fillColor=none;spacingLeft=4;fontSize=12;verticalAlign=top;resizable=0;rotatable=0;part=1;html=1;fontStyle=0" vertex="1" parent="qJj_PIesuQT_neQn-OG3-37">
          <mxGeometry y="50" width="180" height="100" as="geometry" />
        </mxCell>
        <mxCell id="qJj_PIesuQT_neQn-OG3-39" value="Checkup" style="swimlane;childLayout=stackLayout;horizontal=1;startSize=50;horizontalStack=0;rounded=1;fontSize=14;fontStyle=1;strokeWidth=2;resizeParent=0;resizeLast=1;shadow=0;dashed=0;align=center;arcSize=4;whiteSpace=wrap;html=1;" vertex="1" parent="1">
          <mxGeometry x="80" y="1360" width="180" height="150" as="geometry">
            <mxRectangle x="190" y="400" width="90" height="50" as="alternateBounds" />
          </mxGeometry>
        </mxCell>
        <mxCell id="qJj_PIesuQT_neQn-OG3-40" value="&lt;div&gt;+Checkup_ID&lt;/div&gt;&lt;div&gt;+Date&lt;/div&gt;&lt;div&gt;+Symptoms&lt;/div&gt;&lt;div&gt;+Diagnosis&lt;/div&gt;&lt;div&gt;+Doctor_ID&lt;/div&gt;&lt;div&gt;+Patient_ID&lt;br&gt;&lt;/div&gt;" style="align=left;strokeColor=none;fillColor=none;spacingLeft=4;fontSize=12;verticalAlign=top;resizable=0;rotatable=0;part=1;html=1;fontStyle=0" vertex="1" parent="qJj_PIesuQT_neQn-OG3-39">
          <mxGeometry y="50" width="180" height="100" as="geometry" />
        </mxCell>
        <mxCell id="qJj_PIesuQT_neQn-OG3-121" style="edgeStyle=orthogonalEdgeStyle;rounded=0;orthogonalLoop=1;jettySize=auto;html=1;exitX=0.75;exitY=0;exitDx=0;exitDy=0;entryX=0.5;entryY=1;entryDx=0;entryDy=0;" edge="1" parent="1" source="qJj_PIesuQT_neQn-OG3-41" target="qJj_PIesuQT_neQn-OG3-44">
          <mxGeometry relative="1" as="geometry">
            <mxPoint x="640" y="1190" as="targetPoint" />
            <Array as="points">
              <mxPoint x="835" y="1310" />
              <mxPoint x="-240" y="1310" />
            </Array>
          </mxGeometry>
        </mxCell>
        <mxCell id="qJj_PIesuQT_neQn-OG3-41" value="Treatment" style="swimlane;childLayout=stackLayout;horizontal=1;startSize=50;horizontalStack=0;rounded=1;fontSize=14;fontStyle=1;strokeWidth=2;resizeParent=0;resizeLast=1;shadow=0;dashed=0;align=center;arcSize=4;whiteSpace=wrap;html=1;" vertex="1" parent="1">
          <mxGeometry x="700" y="1360" width="180" height="150" as="geometry">
            <mxRectangle x="190" y="400" width="90" height="50" as="alternateBounds" />
          </mxGeometry>
        </mxCell>
        <mxCell id="qJj_PIesuQT_neQn-OG3-42" value="&lt;div&gt;+Treatment_ID&lt;/div&gt;&lt;div&gt;+Treatment_Type&lt;/div&gt;&lt;div&gt;+Medicine_Prescribed&lt;/div&gt;&lt;div&gt;+Operation_Details&lt;/div&gt;&lt;div&gt;+Doctor_ID&lt;/div&gt;&lt;div&gt;+Patient_ID&lt;br&gt;&lt;/div&gt;" style="align=left;strokeColor=none;fillColor=none;spacingLeft=4;fontSize=12;verticalAlign=top;resizable=0;rotatable=0;part=1;html=1;" vertex="1" parent="qJj_PIesuQT_neQn-OG3-41">
          <mxGeometry y="50" width="180" height="100" as="geometry" />
        </mxCell>
        <mxCell id="qJj_PIesuQT_neQn-OG3-43" value="Discharge" style="swimlane;childLayout=stackLayout;horizontal=1;startSize=50;horizontalStack=0;rounded=1;fontSize=14;fontStyle=1;strokeWidth=2;resizeParent=0;resizeLast=1;shadow=0;dashed=0;align=center;arcSize=4;whiteSpace=wrap;html=1;" vertex="1" parent="1">
          <mxGeometry x="-330" y="980" width="180" height="150" as="geometry">
            <mxRectangle x="190" y="400" width="90" height="50" as="alternateBounds" />
          </mxGeometry>
        </mxCell>
        <mxCell id="qJj_PIesuQT_neQn-OG3-44" value="&lt;div&gt;+Discharge_ID&lt;/div&gt;&lt;div&gt;+Date&lt;/div&gt;&lt;div&gt;+Final_Bill&lt;/div&gt;&lt;div&gt;+Patient_ID&lt;/div&gt;&lt;div&gt;+Doctor_ID&lt;/div&gt;&lt;div&gt;+Treatment_ID&lt;br&gt;&lt;/div&gt;" style="align=left;strokeColor=none;fillColor=none;spacingLeft=4;fontSize=12;verticalAlign=top;resizable=0;rotatable=0;part=1;html=1;" vertex="1" parent="qJj_PIesuQT_neQn-OG3-43">
          <mxGeometry y="50" width="180" height="100" as="geometry" />
        </mxCell>
        <mxCell id="qJj_PIesuQT_neQn-OG3-56" value="1" style="text;html=1;align=center;verticalAlign=middle;resizable=0;points=[];autosize=1;strokeColor=none;fillColor=none;fontStyle=1" vertex="1" parent="1">
          <mxGeometry x="260" y="690" width="30" height="30" as="geometry" />
        </mxCell>
        <mxCell id="qJj_PIesuQT_neQn-OG3-57" value="Many" style="text;html=1;align=center;verticalAlign=middle;resizable=0;points=[];autosize=1;strokeColor=none;fillColor=none;fontStyle=1" vertex="1" parent="1">
          <mxGeometry x="490" y="688" width="50" height="30" as="geometry" />
        </mxCell>
        <mxCell id="qJj_PIesuQT_neQn-OG3-70" value="1" style="text;html=1;align=center;verticalAlign=middle;resizable=0;points=[];autosize=1;strokeColor=none;fillColor=none;fontStyle=1" vertex="1" parent="1">
          <mxGeometry x="540" y="730" width="30" height="30" as="geometry" />
        </mxCell>
        <mxCell id="qJj_PIesuQT_neQn-OG3-71" value="Many" style="text;html=1;align=center;verticalAlign=middle;resizable=0;points=[];autosize=1;strokeColor=none;fillColor=none;fontStyle=1" vertex="1" parent="1">
          <mxGeometry x="465" y="950" width="50" height="30" as="geometry" />
        </mxCell>
        <mxCell id="qJj_PIesuQT_neQn-OG3-72" value="1" style="text;html=1;align=center;verticalAlign=middle;resizable=0;points=[];autosize=1;strokeColor=none;fillColor=none;fontStyle=1" vertex="1" parent="1">
          <mxGeometry x="670" y="730" width="30" height="30" as="geometry" />
        </mxCell>
        <mxCell id="qJj_PIesuQT_neQn-OG3-73" value="Many" style="text;html=1;align=center;verticalAlign=middle;resizable=0;points=[];autosize=1;strokeColor=none;fillColor=none;fontStyle=1" vertex="1" parent="1">
          <mxGeometry x="790" y="950" width="50" height="30" as="geometry" />
        </mxCell>
        <mxCell id="qJj_PIesuQT_neQn-OG3-75" value="1" style="text;html=1;align=center;verticalAlign=middle;resizable=0;points=[];autosize=1;strokeColor=none;fillColor=none;fontStyle=1" vertex="1" parent="1">
          <mxGeometry x="140" y="1140" width="30" height="30" as="geometry" />
        </mxCell>
        <mxCell id="qJj_PIesuQT_neQn-OG3-76" value="Many" style="text;html=1;align=center;verticalAlign=middle;resizable=0;points=[];autosize=1;strokeColor=none;fillColor=none;fontStyle=1" vertex="1" parent="1">
          <mxGeometry x="120" y="1330" width="50" height="30" as="geometry" />
        </mxCell>
        <mxCell id="qJj_PIesuQT_neQn-OG3-77" style="edgeStyle=orthogonalEdgeStyle;rounded=0;orthogonalLoop=1;jettySize=auto;html=1;entryX=0.5;entryY=0;entryDx=0;entryDy=0;" edge="1" parent="1" source="qJj_PIesuQT_neQn-OG3-130" target="qJj_PIesuQT_neQn-OG3-39">
          <mxGeometry relative="1" as="geometry" />
        </mxCell>
        <mxCell id="qJj_PIesuQT_neQn-OG3-79" value="1" style="text;html=1;align=center;verticalAlign=middle;resizable=0;points=[];autosize=1;strokeColor=none;fillColor=none;fontStyle=1" vertex="1" parent="1">
          <mxGeometry x="510" y="1117" width="30" height="30" as="geometry" />
        </mxCell>
        <mxCell id="qJj_PIesuQT_neQn-OG3-80" value="Many" style="text;html=1;align=center;verticalAlign=middle;resizable=0;points=[];autosize=1;strokeColor=none;fillColor=none;fontStyle=1" vertex="1" parent="1">
          <mxGeometry x="260" y="1420" width="50" height="30" as="geometry" />
        </mxCell>
        <mxCell id="qJj_PIesuQT_neQn-OG3-81" style="edgeStyle=orthogonalEdgeStyle;rounded=0;orthogonalLoop=1;jettySize=auto;html=1;entryX=0.222;entryY=0;entryDx=0;entryDy=0;entryPerimeter=0;" edge="1" parent="1" source="qJj_PIesuQT_neQn-OG3-36" target="qJj_PIesuQT_neQn-OG3-37">
          <mxGeometry relative="1" as="geometry">
            <mxPoint x="432" y="1230" as="targetPoint" />
            <Array as="points">
              <mxPoint x="320" y="1085" />
              <mxPoint x="320" y="1200" />
              <mxPoint x="430" y="1200" />
            </Array>
          </mxGeometry>
        </mxCell>
        <mxCell id="qJj_PIesuQT_neQn-OG3-82" value="1" style="text;html=1;align=center;verticalAlign=middle;resizable=0;points=[];autosize=1;strokeColor=none;fillColor=none;fontStyle=1" vertex="1" parent="1">
          <mxGeometry x="260" y="1050" width="30" height="30" as="geometry" />
        </mxCell>
        <mxCell id="qJj_PIesuQT_neQn-OG3-83" value="Many" style="text;html=1;align=center;verticalAlign=middle;resizable=0;points=[];autosize=1;strokeColor=none;fillColor=none;fontStyle=1" vertex="1" parent="1">
          <mxGeometry x="380" y="1330" width="50" height="30" as="geometry" />
        </mxCell>
        <mxCell id="qJj_PIesuQT_neQn-OG3-85" value="1" style="text;html=1;align=center;verticalAlign=middle;resizable=0;points=[];autosize=1;strokeColor=none;fillColor=none;fontStyle=1" vertex="1" parent="1">
          <mxGeometry x="465" y="1117" width="30" height="30" as="geometry" />
        </mxCell>
        <mxCell id="qJj_PIesuQT_neQn-OG3-86" value="Many" style="text;html=1;align=center;verticalAlign=middle;resizable=0;points=[];autosize=1;strokeColor=none;fillColor=none;fontStyle=1" vertex="1" parent="1">
          <mxGeometry x="470" y="1330" width="50" height="30" as="geometry" />
        </mxCell>
        <mxCell id="qJj_PIesuQT_neQn-OG3-90" style="edgeStyle=orthogonalEdgeStyle;rounded=0;orthogonalLoop=1;jettySize=auto;html=1;exitX=0.25;exitY=1;exitDx=0;exitDy=0;entryX=0.416;entryY=-0.006;entryDx=0;entryDy=0;entryPerimeter=0;endArrow=none;endFill=0;startArrow=classic;startFill=1;" edge="1" parent="1" source="qJj_PIesuQT_neQn-OG3-33" target="qJj_PIesuQT_neQn-OG3-37">
          <mxGeometry relative="1" as="geometry" />
        </mxCell>
        <mxCell id="qJj_PIesuQT_neQn-OG3-92" style="edgeStyle=orthogonalEdgeStyle;rounded=0;orthogonalLoop=1;jettySize=auto;html=1;entryX=0.75;entryY=0;entryDx=0;entryDy=0;endArrow=none;endFill=0;startArrow=classic;startFill=1;exitX=0.556;exitY=1;exitDx=0;exitDy=0;exitPerimeter=0;" edge="1" parent="1" source="qJj_PIesuQT_neQn-OG3-32" target="qJj_PIesuQT_neQn-OG3-37">
          <mxGeometry relative="1" as="geometry">
            <mxPoint x="800" y="1100" as="sourcePoint" />
            <Array as="points">
              <mxPoint x="800" y="1140" />
              <mxPoint x="660" y="1140" />
              <mxPoint x="660" y="1200" />
              <mxPoint x="525" y="1200" />
            </Array>
          </mxGeometry>
        </mxCell>
        <mxCell id="qJj_PIesuQT_neQn-OG3-93" value="1" style="text;html=1;align=center;verticalAlign=middle;resizable=0;points=[];autosize=1;strokeColor=none;fillColor=none;fontStyle=1" vertex="1" parent="1">
          <mxGeometry x="800" y="1090" width="30" height="30" as="geometry" />
        </mxCell>
        <mxCell id="qJj_PIesuQT_neQn-OG3-94" value="Many" style="text;html=1;align=center;verticalAlign=middle;resizable=0;points=[];autosize=1;strokeColor=none;fillColor=none;fontStyle=1" vertex="1" parent="1">
          <mxGeometry x="530" y="1330" width="50" height="30" as="geometry" />
        </mxCell>
        <mxCell id="qJj_PIesuQT_neQn-OG3-95" style="edgeStyle=orthogonalEdgeStyle;rounded=0;orthogonalLoop=1;jettySize=auto;html=1;exitX=0.75;exitY=1;exitDx=0;exitDy=0;entryX=1.007;entryY=0.959;entryDx=0;entryDy=0;fontStyle=0;entryPerimeter=0;" edge="1" parent="1" target="qJj_PIesuQT_neQn-OG3-100">
          <mxGeometry relative="1" as="geometry">
            <mxPoint x="240.02999999999977" y="1140.0000000000002" as="sourcePoint" />
            <mxPoint x="815.03" y="1340.0000000000002" as="targetPoint" />
            <Array as="points">
              <mxPoint x="240" y="1260" />
              <mxPoint x="815" y="1260" />
            </Array>
          </mxGeometry>
        </mxCell>
        <mxCell id="qJj_PIesuQT_neQn-OG3-98" style="edgeStyle=orthogonalEdgeStyle;rounded=0;orthogonalLoop=1;jettySize=auto;html=1;entryX=0.335;entryY=-0.004;entryDx=0;entryDy=0;entryPerimeter=0;" edge="1" parent="1" source="qJj_PIesuQT_neQn-OG3-34" target="qJj_PIesuQT_neQn-OG3-41">
          <mxGeometry relative="1" as="geometry">
            <mxPoint x="745" y="1320" as="targetPoint" />
            <Array as="points">
              <mxPoint x="620" y="1074" />
              <mxPoint x="620" y="1180" />
              <mxPoint x="760" y="1180" />
              <mxPoint x="760" y="1320" />
              <mxPoint x="760" y="1320" />
            </Array>
          </mxGeometry>
        </mxCell>
        <mxCell id="qJj_PIesuQT_neQn-OG3-99" value="1" style="text;html=1;align=center;verticalAlign=middle;resizable=0;points=[];autosize=1;strokeColor=none;fillColor=none;fontStyle=1" vertex="1" parent="1">
          <mxGeometry x="210" y="1140" width="30" height="30" as="geometry" />
        </mxCell>
        <mxCell id="qJj_PIesuQT_neQn-OG3-100" value="Many" style="text;html=1;align=center;verticalAlign=middle;resizable=0;points=[];autosize=1;strokeColor=none;fillColor=none;fontStyle=1" vertex="1" parent="1">
          <mxGeometry x="765" y="1330" width="50" height="30" as="geometry" />
        </mxCell>
        <mxCell id="qJj_PIesuQT_neQn-OG3-101" value="Many" style="text;html=1;align=center;verticalAlign=middle;resizable=0;points=[];autosize=1;strokeColor=none;fillColor=none;fontStyle=1" vertex="1" parent="1">
          <mxGeometry x="600" y="1045" width="50" height="30" as="geometry" />
        </mxCell>
        <mxCell id="qJj_PIesuQT_neQn-OG3-102" value="1" style="text;html=1;align=center;verticalAlign=middle;resizable=0;points=[];autosize=1;strokeColor=none;fillColor=none;fontStyle=1" vertex="1" parent="1">
          <mxGeometry x="730" y="1330" width="30" height="30" as="geometry" />
        </mxCell>
        <mxCell id="qJj_PIesuQT_neQn-OG3-103" style="edgeStyle=orthogonalEdgeStyle;rounded=0;orthogonalLoop=1;jettySize=auto;html=1;entryX=1.003;entryY=0.294;entryDx=0;entryDy=0;entryPerimeter=0;" edge="1" parent="1" source="qJj_PIesuQT_neQn-OG3-35" target="qJj_PIesuQT_neQn-OG3-44">
          <mxGeometry relative="1" as="geometry" />
        </mxCell>
        <mxCell id="qJj_PIesuQT_neQn-OG3-104" value="1" style="text;html=1;align=center;verticalAlign=middle;resizable=0;points=[];autosize=1;strokeColor=none;fillColor=none;fontStyle=1" vertex="1" parent="1">
          <mxGeometry x="50" y="1030" width="30" height="30" as="geometry" />
        </mxCell>
        <mxCell id="qJj_PIesuQT_neQn-OG3-105" value="1" style="text;html=1;align=center;verticalAlign=middle;resizable=0;points=[];autosize=1;strokeColor=none;fillColor=none;fontStyle=1" vertex="1" parent="1">
          <mxGeometry x="-60" y="1030" width="30" height="30" as="geometry" />
        </mxCell>
        <mxCell id="qJj_PIesuQT_neQn-OG3-108" value="Many" style="text;html=1;align=center;verticalAlign=middle;resizable=0;points=[];autosize=1;strokeColor=none;fillColor=none;fontStyle=1" vertex="1" parent="1">
          <mxGeometry x="840" y="1330" width="50" height="30" as="geometry" />
        </mxCell>
        <mxCell id="qJj_PIesuQT_neQn-OG3-109" value="1" style="text;html=1;align=center;verticalAlign=middle;resizable=0;points=[];autosize=1;strokeColor=none;fillColor=none;fontStyle=1" vertex="1" parent="1">
          <mxGeometry x="-240" y="1140" width="30" height="30" as="geometry" />
        </mxCell>
        <mxCell id="qJj_PIesuQT_neQn-OG3-110" style="edgeStyle=orthogonalEdgeStyle;rounded=0;orthogonalLoop=1;jettySize=auto;html=1;entryX=0.25;entryY=0;entryDx=0;entryDy=0;" edge="1" parent="1" source="qJj_PIesuQT_neQn-OG3-28" target="qJj_PIesuQT_neQn-OG3-31">
          <mxGeometry relative="1" as="geometry">
            <Array as="points">
              <mxPoint x="180" y="860" />
              <mxPoint x="745" y="860" />
            </Array>
          </mxGeometry>
        </mxCell>
        <mxCell id="qJj_PIesuQT_neQn-OG3-111" value="1" style="text;html=1;align=center;verticalAlign=middle;resizable=0;points=[];autosize=1;strokeColor=none;fillColor=none;fontStyle=1" vertex="1" parent="1">
          <mxGeometry x="180" y="740" width="30" height="30" as="geometry" />
        </mxCell>
        <mxCell id="qJj_PIesuQT_neQn-OG3-112" value="Many" style="text;html=1;align=center;verticalAlign=middle;resizable=0;points=[];autosize=1;strokeColor=none;fillColor=none;fontStyle=1" vertex="1" parent="1">
          <mxGeometry x="690" y="950" width="50" height="30" as="geometry" />
        </mxCell>
        <mxCell id="qJj_PIesuQT_neQn-OG3-113" style="edgeStyle=orthogonalEdgeStyle;rounded=0;orthogonalLoop=1;jettySize=auto;html=1;exitX=0.25;exitY=1;exitDx=0;exitDy=0;entryX=0.5;entryY=0;entryDx=0;entryDy=0;" edge="1" parent="1" source="qJj_PIesuQT_neQn-OG3-30" target="qJj_PIesuQT_neQn-OG3-33">
          <mxGeometry relative="1" as="geometry">
            <Array as="points">
              <mxPoint x="580" y="930" />
              <mxPoint x="510" y="930" />
            </Array>
          </mxGeometry>
        </mxCell>
        <mxCell id="qJj_PIesuQT_neQn-OG3-114" style="edgeStyle=orthogonalEdgeStyle;rounded=0;orthogonalLoop=1;jettySize=auto;html=1;exitX=0.75;exitY=1;exitDx=0;exitDy=0;entryX=0.5;entryY=0;entryDx=0;entryDy=0;" edge="1" parent="1" source="qJj_PIesuQT_neQn-OG3-30" target="qJj_PIesuQT_neQn-OG3-31">
          <mxGeometry relative="1" as="geometry">
            <Array as="points">
              <mxPoint x="660" y="780" />
              <mxPoint x="790" y="780" />
            </Array>
          </mxGeometry>
        </mxCell>
        <mxCell id="qJj_PIesuQT_neQn-OG3-115" style="edgeStyle=orthogonalEdgeStyle;rounded=0;orthogonalLoop=1;jettySize=auto;html=1;exitX=0.25;exitY=1;exitDx=0;exitDy=0;entryX=0.333;entryY=0;entryDx=0;entryDy=0;entryPerimeter=0;" edge="1" parent="1" source="qJj_PIesuQT_neQn-OG3-28" target="qJj_PIesuQT_neQn-OG3-35">
          <mxGeometry relative="1" as="geometry" />
        </mxCell>
        <mxCell id="qJj_PIesuQT_neQn-OG3-116" value="1" style="text;html=1;align=center;verticalAlign=middle;resizable=0;points=[];autosize=1;strokeColor=none;fillColor=none;fontStyle=1" vertex="1" parent="1">
          <mxGeometry x="110" y="740" width="30" height="30" as="geometry" />
        </mxCell>
        <mxCell id="qJj_PIesuQT_neQn-OG3-117" value="Many" style="text;html=1;align=center;verticalAlign=middle;resizable=0;points=[];autosize=1;strokeColor=none;fillColor=none;fontStyle=1" vertex="1" parent="1">
          <mxGeometry x="90" y="950" width="50" height="30" as="geometry" />
        </mxCell>
        <mxCell id="qJj_PIesuQT_neQn-OG3-118" style="edgeStyle=orthogonalEdgeStyle;rounded=0;orthogonalLoop=1;jettySize=auto;html=1;exitX=0.75;exitY=1;exitDx=0;exitDy=0;entryX=0.25;entryY=0;entryDx=0;entryDy=0;" edge="1" parent="1" source="qJj_PIesuQT_neQn-OG3-28" target="qJj_PIesuQT_neQn-OG3-33">
          <mxGeometry relative="1" as="geometry">
            <Array as="points">
              <mxPoint x="220" y="930" />
              <mxPoint x="465" y="930" />
            </Array>
          </mxGeometry>
        </mxCell>
        <mxCell id="qJj_PIesuQT_neQn-OG3-119" value="1" style="text;html=1;align=center;verticalAlign=middle;resizable=0;points=[];autosize=1;strokeColor=none;fillColor=none;fontStyle=1" vertex="1" parent="1">
          <mxGeometry x="220" y="740" width="30" height="30" as="geometry" />
        </mxCell>
        <mxCell id="qJj_PIesuQT_neQn-OG3-120" value="Many" style="text;html=1;align=center;verticalAlign=middle;resizable=0;points=[];autosize=1;strokeColor=none;fillColor=none;fontStyle=1" vertex="1" parent="1">
          <mxGeometry x="405" y="950" width="50" height="30" as="geometry" />
        </mxCell>
        <mxCell id="qJj_PIesuQT_neQn-OG3-122" value="&lt;span&gt;Contains&lt;/span&gt;" style="shape=rhombus;perimeter=rhombusPerimeter;whiteSpace=wrap;html=1;align=center;fontStyle=1" vertex="1" parent="1">
          <mxGeometry x="335" y="650" width="120" height="60" as="geometry" />
        </mxCell>
        <mxCell id="qJj_PIesuQT_neQn-OG3-125" style="edgeStyle=orthogonalEdgeStyle;rounded=0;orthogonalLoop=1;jettySize=auto;html=1;entryX=0.019;entryY=0.167;entryDx=0;entryDy=0;entryPerimeter=0;" edge="1" parent="1" source="qJj_PIesuQT_neQn-OG3-122" target="qJj_PIesuQT_neQn-OG3-30">
          <mxGeometry relative="1" as="geometry" />
        </mxCell>
        <mxCell id="qJj_PIesuQT_neQn-OG3-128" value="Employs/&lt;div&gt;Assigns&lt;br&gt;&lt;/div&gt;" style="shape=rhombus;perimeter=rhombusPerimeter;whiteSpace=wrap;html=1;align=center;fontStyle=1" vertex="1" parent="1">
          <mxGeometry x="520" y="790" width="120" height="60" as="geometry" />
        </mxCell>
        <mxCell id="qJj_PIesuQT_neQn-OG3-129" value="&lt;div&gt;Allocates&lt;br&gt;&lt;/div&gt;" style="shape=rhombus;perimeter=rhombusPerimeter;whiteSpace=wrap;html=1;align=center;fontStyle=1" vertex="1" parent="1">
          <mxGeometry x="730" y="810" width="120" height="60" as="geometry" />
        </mxCell>
        <mxCell id="qJj_PIesuQT_neQn-OG3-131" value="" style="edgeStyle=orthogonalEdgeStyle;rounded=0;orthogonalLoop=1;jettySize=auto;html=1;entryX=0.5;entryY=0;entryDx=0;entryDy=0;" edge="1" parent="1" source="qJj_PIesuQT_neQn-OG3-36" target="qJj_PIesuQT_neQn-OG3-130">
          <mxGeometry relative="1" as="geometry">
            <mxPoint x="170" y="1140" as="sourcePoint" />
            <mxPoint x="170" y="1340" as="targetPoint" />
          </mxGeometry>
        </mxCell>
        <mxCell id="qJj_PIesuQT_neQn-OG3-130" value="&lt;div&gt;Undergoes&lt;br&gt;&lt;/div&gt;" style="shape=rhombus;perimeter=rhombusPerimeter;whiteSpace=wrap;html=1;align=center;fontStyle=1" vertex="1" parent="1">
          <mxGeometry x="110" y="1210" width="120" height="60" as="geometry" />
        </mxCell>
        <mxCell id="qJj_PIesuQT_neQn-OG3-133" style="edgeStyle=orthogonalEdgeStyle;rounded=0;orthogonalLoop=1;jettySize=auto;html=1;entryX=1.002;entryY=0.099;entryDx=0;entryDy=0;entryPerimeter=0;" edge="1" parent="1" source="qJj_PIesuQT_neQn-OG3-34" target="qJj_PIesuQT_neQn-OG3-40">
          <mxGeometry relative="1" as="geometry">
            <mxPoint x="270" y="1400" as="targetPoint" />
            <Array as="points">
              <mxPoint x="510" y="1220" />
              <mxPoint x="320" y="1220" />
              <mxPoint x="320" y="1420" />
            </Array>
          </mxGeometry>
        </mxCell>
        <mxCell id="qJj_PIesuQT_neQn-OG3-134" value="&lt;div&gt;Performs&lt;br&gt;&lt;/div&gt;" style="shape=rhombus;perimeter=rhombusPerimeter;whiteSpace=wrap;html=1;align=center;fontStyle=1" vertex="1" parent="1">
          <mxGeometry x="260" y="1320" width="120" height="60" as="geometry" />
        </mxCell>
        <mxCell id="qJj_PIesuQT_neQn-OG3-136" value="&lt;div&gt;Admits&lt;br&gt;&lt;/div&gt;" style="shape=rhombus;perimeter=rhombusPerimeter;whiteSpace=wrap;html=1;align=center;fontStyle=1" vertex="1" parent="1">
          <mxGeometry x="260" y="1125" width="120" height="60" as="geometry" />
        </mxCell>
        <mxCell id="qJj_PIesuQT_neQn-OG3-137" value="&lt;div&gt;Occupies&lt;br&gt;&lt;/div&gt;" style="shape=rhombus;perimeter=rhombusPerimeter;whiteSpace=wrap;html=1;align=center;fontStyle=1" vertex="1" parent="1">
          <mxGeometry x="670" y="1110" width="120" height="60" as="geometry" />
        </mxCell>
        <mxCell id="qJj_PIesuQT_neQn-OG3-138" value="&lt;div&gt;Consults&lt;br&gt;&lt;/div&gt;" style="shape=rhombus;perimeter=rhombusPerimeter;whiteSpace=wrap;html=1;align=center;fontStyle=1" vertex="1" parent="1">
          <mxGeometry x="405" y="1150" width="120" height="60" as="geometry" />
        </mxCell>
        <mxCell id="qJj_PIesuQT_neQn-OG3-147" value="Receives" style="shape=rhombus;perimeter=rhombusPerimeter;whiteSpace=wrap;html=1;align=center;fontStyle=1" vertex="1" parent="1">
          <mxGeometry x="590" y="1230" width="120" height="60" as="geometry" />
        </mxCell>
        <mxCell id="qJj_PIesuQT_neQn-OG3-148" value="&lt;b&gt;Administers&lt;/b&gt;" style="shape=rhombus;perimeter=rhombusPerimeter;whiteSpace=wrap;html=1;align=center;" vertex="1" parent="1">
          <mxGeometry x="700" y="1185" width="120" height="60" as="geometry" />
        </mxCell>
        <mxCell id="qJj_PIesuQT_neQn-OG3-149" value="Discharged" style="shape=rhombus;perimeter=rhombusPerimeter;whiteSpace=wrap;html=1;align=center;fontStyle=1" vertex="1" parent="1">
          <mxGeometry x="-90" y="1030" width="120" height="60" as="geometry" />
        </mxCell>
        <mxCell id="qJj_PIesuQT_neQn-OG3-150" value="Finalizes" style="shape=rhombus;perimeter=rhombusPerimeter;whiteSpace=wrap;html=1;align=center;fontStyle=1" vertex="1" parent="1">
          <mxGeometry x="-150" y="1280" width="120" height="60" as="geometry" />
        </mxCell>
        <mxCell id="qJj_PIesuQT_neQn-OG3-151" value="Contains" style="shape=rhombus;perimeter=rhombusPerimeter;whiteSpace=wrap;html=1;align=center;fontStyle=1" vertex="1" parent="1">
          <mxGeometry x="330" y="830" width="120" height="60" as="geometry" />
        </mxCell>
        <mxCell id="qJj_PIesuQT_neQn-OG3-152" value="Treats" style="shape=rhombus;perimeter=rhombusPerimeter;whiteSpace=wrap;html=1;align=center;fontStyle=1" vertex="1" parent="1">
          <mxGeometry x="80" y="890" width="120" height="60" as="geometry" />
        </mxCell>
        <mxCell id="qJj_PIesuQT_neQn-OG3-154" value="Hires/&lt;div&gt;Contracts&lt;/div&gt;" style="shape=rhombus;perimeter=rhombusPerimeter;whiteSpace=wrap;html=1;align=center;fontStyle=1" vertex="1" parent="1">
          <mxGeometry x="285" y="900" width="120" height="60" as="geometry" />
        </mxCell>
      </root>
    </mxGraphModel>
  </diagram>
</mxfile>
